<?xml version="1.0" encoding="utf-8"?>
<!-- Generator: Adobe Illustrator 24.1.0, SVG Export Plug-In . SVG Version: 6.00 Build 0)  -->
<svg version="1.1" id="Layer_1" xmlns="http://www.w3.org/2000/svg" xmlns:xlink="http://www.w3.org/1999/xlink" x="0px" y="0px"
	 viewBox="0 0 100 125" style="enable-background:new 0 0 100 125;" xml:space="preserve">
<style type="text/css">
	.st0{fill:#204120;}
</style>
<g id="Layer_2_1_">
</g>
<g id="Layer_1_1_">
	<g>
		<path class="st0" d="M72.1,45.7c-2-1.6-5-1.4-6.7,0.7c-1.7,2.1-1.3,5.1,0.8,6.8c2.7,2.2,4.4,5.6,4.4,9.3c0,4-1.9,7.5-4.9,9.7
			c-1.9,1.4-2.2,4.2-0.7,6l0.4,0.4c1.6,1.9,4.6,2.3,6.5,0.8c5-3.9,8.2-10.1,8.2-16.9C80.1,55.7,77,49.7,72.1,45.7z"/>
		<path class="st0" d="M83,32.3c-2-1.6-4.9-1.2-6.6,0.7l0,0c-1.6,2-1.4,5,0.6,6.6c6.6,5.5,10.9,13.7,10.9,22.9S83.6,80,77,85.4
			C75,87,74.8,90,76.4,92l0,0c1.6,2,4.6,2.4,6.6,0.8c8.8-7.1,14.5-18,14.5-30.2C97.4,50.3,91.8,39.4,83,32.3z"/>
		<path class="st0" d="M44.2,25L20,43.7H8.1c-3.1,0-5.6,2.5-5.6,5.6v26.4c0,3.1,2.5,5.6,5.6,5.6H20L44.4,100
			c4.3,3.3,10.4,0.3,10.4-5.2V30.1C54.8,24.8,48.5,21.7,44.2,25z"/>
	</g>
</g>
</svg>
